<svg width="123" height="21" viewBox="0 0 123 21" fill="none" xmlns="http://www.w3.org/2000/svg">
<path d="M5.24 9.848C6.104 9.848 6.824 9.8 7.4 9.704C7.992 9.592 8.456 9.424 8.792 9.2C9.144 8.976 9.392 8.688 9.536 8.336C9.696 7.984 9.776 7.568 9.776 7.088H10.616V13.64H9.776C9.776 13.16 9.704 12.744 9.56 12.392C9.432 12.04 9.192 11.752 8.84 11.528C8.504 11.288 8.04 11.112 7.448 11C6.872 10.872 6.136 10.808 5.24 10.808V16.232C5.24 16.76 5.304 17.2 5.432 17.552C5.56 17.888 5.776 18.168 6.08 18.392C6.4 18.6 6.816 18.752 7.328 18.848C7.84 18.928 8.472 18.968 9.224 18.968C10.072 18.968 10.792 18.912 11.384 18.8C11.976 18.672 12.472 18.464 12.872 18.176C13.272 17.888 13.592 17.512 13.832 17.048C14.072 16.568 14.272 15.976 14.432 15.272H15.344L14.984 20H0.08V19.088C0.64 19.072 1.088 19.024 1.424 18.944C1.776 18.864 2.048 18.728 2.24 18.536C2.432 18.344 2.56 18.072 2.624 17.72C2.688 17.368 2.72 16.912 2.72 16.352V5.168C2.72 4.608 2.688 4.16 2.624 3.824C2.576 3.472 2.464 3.2 2.288 3.008C2.128 2.8 1.888 2.664 1.568 2.6C1.248 2.52 0.832 2.464 0.32 2.432V1.52H14.192L14.408 5.744H13.568C13.472 5.104 13.312 4.584 13.088 4.184C12.88 3.768 12.584 3.44 12.2 3.2C11.832 2.96 11.36 2.792 10.784 2.696C10.208 2.6 9.512 2.552 8.696 2.552H5.648C5.376 2.552 5.24 2.688 5.24 2.96V9.848ZM18.2621 14.048V12.056H25.6781V14.048H18.2621ZM36.1814 10.112C36.5654 9.632 36.7574 9.224 36.7574 8.888C36.7574 8.376 36.2854 8.12 35.3414 8.12V7.28H40.5974V8.12C40.3094 8.12 40.0454 8.152 39.8054 8.216C39.5814 8.28 39.3574 8.384 39.1334 8.528C38.9094 8.672 38.6774 8.872 38.4374 9.128C38.2134 9.368 37.9574 9.672 37.6694 10.04L35.1974 13.184L38.3894 17.384C38.8854 18.04 39.3414 18.504 39.7574 18.776C40.1894 19.032 40.6454 19.16 41.1254 19.16V20H34.7414V19.16C35.3174 19.16 35.7174 19.12 35.9414 19.04C36.1654 18.944 36.2774 18.768 36.2774 18.512C36.2774 18.4 36.2054 18.24 36.0614 18.032C35.9334 17.808 35.7094 17.488 35.3894 17.072L33.7094 14.912L31.6694 17.504C31.4294 17.792 31.3094 18.08 31.3094 18.368C31.3094 18.592 31.4054 18.784 31.5974 18.944C31.7894 19.088 32.0934 19.16 32.5094 19.16V20H27.0134V19.16C27.3814 19.16 27.7094 19.128 27.9974 19.064C28.2854 19 28.5574 18.888 28.8134 18.728C29.0854 18.568 29.3574 18.344 29.6294 18.056C29.9174 17.768 30.2374 17.408 30.5894 16.976L33.0374 13.976L29.8454 9.44C29.4774 8.928 29.1414 8.584 28.8374 8.408C28.5334 8.216 28.1494 8.12 27.6854 8.12V7.28H33.5894V8.12C33.1574 8.12 32.8454 8.176 32.6534 8.288C32.4614 8.384 32.3654 8.52 32.3654 8.696C32.3654 8.936 32.5174 9.272 32.8214 9.704L34.5494 12.224L36.1814 10.112ZM46.8704 16.184C46.8704 16.808 46.8944 17.312 46.9424 17.696C47.0064 18.064 47.1184 18.36 47.2784 18.584C47.4384 18.792 47.6624 18.936 47.9504 19.016C48.2384 19.096 48.6224 19.144 49.1024 19.16V20H42.2144V19.16C42.6944 19.144 43.0864 19.096 43.3904 19.016C43.6944 18.92 43.9264 18.776 44.0864 18.584C44.2624 18.376 44.3744 18.096 44.4224 17.744C44.4864 17.376 44.5184 16.912 44.5184 16.352V13.28C44.5184 12.352 44.5024 11.592 44.4704 11C44.4544 10.392 44.4144 9.976 44.3504 9.752C44.2704 9.384 44.0864 9.136 43.7984 9.008C43.5104 8.864 42.9664 8.792 42.1664 8.792V7.952L46.8704 7.04V16.184ZM44.1104 2.168C44.1104 1.752 44.2544 1.4 44.5424 1.112C44.8304 0.823998 45.1824 0.679998 45.5984 0.679998C46.0144 0.679998 46.3664 0.823998 46.6544 1.112C46.9424 1.4 47.0864 1.752 47.0864 2.168C47.0864 2.584 46.9424 2.936 46.6544 3.224C46.3664 3.512 46.0144 3.656 45.5984 3.656C45.1824 3.656 44.8304 3.512 44.5424 3.224C44.2544 2.936 44.1104 2.584 44.1104 2.168ZM54.1141 14.984C54.1141 15.592 54.2021 16.152 54.3781 16.664C54.5541 17.16 54.7941 17.592 55.0981 17.96C55.4181 18.312 55.7941 18.592 56.2261 18.8C56.6741 19.008 57.1541 19.112 57.6661 19.112C58.2261 19.112 58.7301 18.984 59.1781 18.728C59.6421 18.472 60.0341 18.112 60.3541 17.648C60.6901 17.168 60.9461 16.6 61.1221 15.944C61.3141 15.272 61.4101 14.528 61.4101 13.712C61.4101 12.896 61.3141 12.152 61.1221 11.48C60.9301 10.792 60.6661 10.208 60.3301 9.728C59.9941 9.232 59.5861 8.848 59.1061 8.576C58.6421 8.304 58.1301 8.168 57.5701 8.168C56.9141 8.168 56.3301 8.328 55.8181 8.648C55.3061 8.952 54.9141 9.384 54.6421 9.944C54.2901 10.648 54.1141 11.616 54.1141 12.848V14.984ZM54.0661 8.984H54.1621C54.6741 8.312 55.2341 7.824 55.8421 7.52C56.4661 7.2 57.1861 7.04 58.0021 7.04C58.8661 7.04 59.6661 7.208 60.4021 7.544C61.1541 7.88 61.8021 8.344 62.3461 8.936C62.9061 9.528 63.3381 10.232 63.6421 11.048C63.9621 11.848 64.1221 12.712 64.1221 13.64C64.1221 14.584 63.9621 15.464 63.6421 16.28C63.3221 17.08 62.8821 17.776 62.3221 18.368C61.7781 18.96 61.1301 19.424 60.3781 19.76C59.6261 20.096 58.8101 20.264 57.9301 20.264C57.0181 20.264 56.1621 20.096 55.3621 19.76C54.5781 19.424 53.9301 18.968 53.4181 18.392L52.2901 20H51.7621V5.504C51.7621 3.888 51.6581 2.856 51.4501 2.408C51.4021 2.296 51.3461 2.208 51.2821 2.144C51.2181 2.064 51.1221 2 50.9941 1.952C50.8661 1.888 50.6901 1.832 50.4661 1.784C50.2421 1.736 49.9381 1.688 49.5541 1.64V1.04L54.0661 0.079999V8.984ZM70.7533 16.184C70.7533 16.808 70.7773 17.312 70.8253 17.696C70.8893 18.064 71.0013 18.36 71.1613 18.584C71.3213 18.792 71.5453 18.936 71.8333 19.016C72.1213 19.096 72.5053 19.144 72.9853 19.16V20H66.0973V19.16C66.5773 19.144 66.9693 19.096 67.2733 19.016C67.5773 18.92 67.8093 18.776 67.9693 18.584C68.1453 18.376 68.2573 18.096 68.3053 17.744C68.3693 17.376 68.4013 16.912 68.4013 16.352V13.28C68.4013 12.352 68.3853 11.592 68.3533 11C68.3373 10.392 68.2973 9.976 68.2333 9.752C68.1533 9.384 67.9693 9.136 67.6813 9.008C67.3933 8.864 66.8493 8.792 66.0493 8.792V7.952L70.7533 7.04V16.184ZM67.9933 2.168C67.9933 1.752 68.1373 1.4 68.4253 1.112C68.7133 0.823998 69.0653 0.679998 69.4813 0.679998C69.8973 0.679998 70.2493 0.823998 70.5373 1.112C70.8253 1.4 70.9693 1.752 70.9693 2.168C70.9693 2.584 70.8253 2.936 70.5373 3.224C70.2493 3.512 69.8973 3.656 69.4813 3.656C69.0653 3.656 68.7133 3.512 68.4253 3.224C68.1373 2.936 67.9933 2.584 67.9933 2.168ZM74.4209 8.792V7.904C75.2689 7.408 75.9329 6.912 76.4129 6.416C76.8929 5.92 77.2609 5.328 77.5169 4.64H78.2129V7.664H81.4289V8.792H78.2129V16.088C78.2129 16.648 78.2369 17.12 78.2849 17.504C78.3489 17.888 78.4449 18.2 78.5729 18.44C78.7009 18.664 78.8689 18.824 79.0769 18.92C79.2849 19.016 79.5489 19.064 79.8689 19.064C80.2689 19.064 80.6049 18.984 80.8769 18.824C81.1649 18.648 81.4449 18.36 81.7169 17.96L82.3169 18.416C82.0929 19.008 81.7009 19.464 81.1409 19.784C80.5969 20.088 79.9169 20.24 79.1009 20.24C78.0449 20.24 77.2369 19.992 76.6769 19.496C76.1329 18.984 75.8609 18.256 75.8609 17.312V8.792H74.4209ZM88.0033 16.184C88.0033 16.808 88.0273 17.312 88.0753 17.696C88.1393 18.064 88.2513 18.36 88.4113 18.584C88.5713 18.792 88.7953 18.936 89.0833 19.016C89.3713 19.096 89.7553 19.144 90.2353 19.16V20H83.3473V19.16C83.8273 19.144 84.2193 19.096 84.5233 19.016C84.8273 18.92 85.0593 18.776 85.2193 18.584C85.3953 18.376 85.5073 18.096 85.5553 17.744C85.6193 17.376 85.6513 16.912 85.6513 16.352V13.28C85.6513 12.352 85.6353 11.592 85.6033 11C85.5873 10.392 85.5473 9.976 85.4833 9.752C85.4033 9.384 85.2193 9.136 84.9313 9.008C84.6433 8.864 84.0993 8.792 83.2993 8.792V7.952L88.0033 7.04V16.184ZM85.2433 2.168C85.2433 1.752 85.3873 1.4 85.6753 1.112C85.9633 0.823998 86.3153 0.679998 86.7313 0.679998C87.1473 0.679998 87.4993 0.823998 87.7873 1.112C88.0753 1.4 88.2193 1.752 88.2193 2.168C88.2193 2.584 88.0753 2.936 87.7873 3.224C87.4993 3.512 87.1473 3.656 86.7313 3.656C86.3153 3.656 85.9633 3.512 85.6753 3.224C85.3873 2.936 85.2433 2.584 85.2433 2.168ZM98.5109 7.04C99.4229 7.04 100.287 7.208 101.103 7.544C101.919 7.864 102.631 8.312 103.239 8.888C103.863 9.464 104.351 10.152 104.703 10.952C105.071 11.736 105.255 12.6 105.255 13.544C105.255 14.52 105.071 15.416 104.703 16.232C104.351 17.048 103.863 17.752 103.239 18.344C102.631 18.936 101.919 19.4 101.103 19.736C100.287 20.072 99.4229 20.24 98.5109 20.24C97.6149 20.24 96.7589 20.08 95.9429 19.76C95.1429 19.424 94.4389 18.96 93.8309 18.368C93.2229 17.776 92.7429 17.072 92.3909 16.256C92.0389 15.424 91.8629 14.52 91.8629 13.544C91.8629 12.6 92.0389 11.728 92.3909 10.928C92.7429 10.128 93.2229 9.44 93.8309 8.864C94.4389 8.288 95.1429 7.84 95.9429 7.52C96.7589 7.2 97.6149 7.04 98.5109 7.04ZM98.5109 8.192C97.9189 8.192 97.3749 8.32 96.8789 8.576C96.3989 8.832 95.9829 9.2 95.6309 9.68C95.2949 10.144 95.0309 10.712 94.8389 11.384C94.6629 12.04 94.5749 12.768 94.5749 13.568C94.5749 14.4 94.6629 15.152 94.8389 15.824C95.0309 16.496 95.2949 17.072 95.6309 17.552C95.9829 18.016 96.3989 18.376 96.8789 18.632C97.3589 18.888 97.9029 19.016 98.5109 19.016C99.1189 19.016 99.6709 18.888 100.167 18.632C100.663 18.376 101.087 18.008 101.439 17.528C101.791 17.048 102.063 16.472 102.255 15.8C102.447 15.128 102.543 14.384 102.543 13.568C102.543 12.768 102.447 12.04 102.255 11.384C102.063 10.728 101.791 10.168 101.439 9.704C101.087 9.224 100.663 8.856 100.167 8.6C99.6709 8.328 99.1189 8.192 98.5109 8.192ZM111.598 16.232C111.598 16.888 111.614 17.408 111.646 17.792C111.678 18.16 111.758 18.448 111.886 18.656C112.03 18.848 112.23 18.976 112.486 19.04C112.758 19.104 113.126 19.152 113.59 19.184V20H107.302V19.184C107.75 19.152 108.102 19.104 108.358 19.04C108.63 18.976 108.838 18.848 108.982 18.656C109.126 18.464 109.214 18.192 109.246 17.84C109.294 17.488 109.318 17.008 109.318 16.4V13.208C109.318 11.304 109.27 10.144 109.174 9.728C109.126 9.52 109.062 9.352 108.982 9.224C108.918 9.08 108.814 8.976 108.67 8.912C108.526 8.832 108.342 8.784 108.118 8.768C107.894 8.736 107.606 8.72 107.254 8.72V7.952L111.094 7.04L111.382 9.416H111.478C112.086 8.664 112.798 8.08 113.614 7.664C114.43 7.248 115.318 7.04 116.278 7.04C117.014 7.04 117.686 7.16 118.294 7.4C118.902 7.64 119.366 7.968 119.686 8.384C119.958 8.752 120.15 9.232 120.262 9.824C120.374 10.4 120.43 11.2 120.43 12.224V16.232C120.43 16.888 120.446 17.408 120.478 17.792C120.526 18.16 120.614 18.448 120.742 18.656C120.87 18.848 121.062 18.976 121.318 19.04C121.59 19.104 121.942 19.152 122.374 19.184V20H116.158V19.184C116.606 19.168 116.958 19.128 117.214 19.064C117.486 18.984 117.686 18.848 117.814 18.656C117.958 18.464 118.046 18.192 118.078 17.84C118.126 17.472 118.15 16.992 118.15 16.4V13.232C118.15 12.32 118.102 11.552 118.006 10.928C117.91 10.304 117.75 9.8 117.526 9.416C117.318 9.032 117.038 8.76 116.686 8.6C116.334 8.424 115.91 8.336 115.414 8.336C114.694 8.336 114.03 8.528 113.422 8.912C112.83 9.28 112.366 9.792 112.03 10.448C111.95 10.608 111.878 10.76 111.814 10.904C111.766 11.048 111.726 11.216 111.694 11.408C111.662 11.6 111.638 11.824 111.622 12.08C111.606 12.32 111.598 12.632 111.598 13.016V16.232Z" fill="black"/>
</svg>
